<?xml version="1.0" encoding="UTF-8" standalone="no"?>
<!-- Created with Inkscape (http://www.inkscape.org/) -->

<svg
   xmlns:dc="http://purl.org/dc/elements/1.1/"
   xmlns:cc="http://creativecommons.org/ns#"
   xmlns:rdf="http://www.w3.org/1999/02/22-rdf-syntax-ns#"
   xmlns:svg="http://www.w3.org/2000/svg"
   xmlns="http://www.w3.org/2000/svg"
   xmlns:sodipodi="http://sodipodi.sourceforge.net/DTD/sodipodi-0.dtd"
   xmlns:inkscape="http://www.inkscape.org/namespaces/inkscape"
   width="297mm"
   height="80mm"
   viewBox="0 0 297 80"
   version="1.1"
   id="svg4782"
   inkscape:version="0.92.4 (5da689c313, 2019-01-14)"
   sodipodi:docname="logotext.svg">
  <defs
     id="defs4776" />
  <sodipodi:namedview
     id="base"
     pagecolor="#ffffff"
     bordercolor="#666666"
     borderopacity="1.0"
     inkscape:pageopacity="0.0"
     inkscape:pageshadow="2"
     inkscape:zoom="0.7"
     inkscape:cx="431.83456"
     inkscape:cy="275.15439"
     inkscape:document-units="mm"
     inkscape:current-layer="g6851"
     showgrid="false"
     inkscape:window-width="1850"
     inkscape:window-height="1016"
     inkscape:window-x="70"
     inkscape:window-y="27"
     inkscape:window-maximized="1" />
  <metadata
     id="metadata4779">
    <rdf:RDF>
      <cc:Work
         rdf:about="">
        <dc:format>image/svg+xml</dc:format>
        <dc:type
           rdf:resource="http://purl.org/dc/dcmitype/StillImage" />
        <dc:title></dc:title>
      </cc:Work>
    </rdf:RDF>
  </metadata>
  <g
     inkscape:label="text"
     inkscape:groupmode="layer"
     id="layer1"
     transform="translate(0,-217)">
    <text
       xml:space="preserve"
       style="font-style:normal;font-weight:normal;font-size:7.99993801px;line-height:1.25;font-family:sans-serif;letter-spacing:0px;word-spacing:0px;fill:#000000;fill-opacity:1;stroke:none;stroke-width:0.19999844"
       x="87.55619"
       y="281.79965"
       id="text4786"><tspan
         sodipodi:role="line"
         id="tspan4784"
         x="87.55619"
         y="281.79965"
         style="font-style:normal;font-variant:normal;font-weight:normal;font-stretch:normal;font-size:55.99956894px;font-family:Laksaman;-inkscape-font-specification:'Laksaman, Normal';font-variant-ligatures:normal;font-variant-caps:normal;font-variant-numeric:normal;font-feature-settings:normal;text-align:start;writing-mode:lr-tb;text-anchor:start;stroke-width:0.19999844">Dancier</tspan></text>
  </g>
  <g
     inkscape:groupmode="layer"
     id="layer5"
     inkscape:label="Dancer"
     style="display:inline"
     transform="translate(0,-130)">
    <g
       id="g6851"
       transform="translate(-156.77492,30.578082)">
      <path
         sodipodi:nodetypes="caaaaaaaaaaaaaaaaaaaasaaaaaaaaacaaaaassaaaaaaaassssaaaaaccaaaaaaaaaaaaaac"
         inkscape:connector-curvature="0"
         id="path4556-2"
         d="m 205.16284,117.95531 c 0.68825,-1.03757 1.95025,-1.64703 3.13446,-2.03159 0.92756,-0.30122 2.02388,-0.53577 2.92163,-0.15479 1.07737,0.4572 1.90353,1.55048 2.30248,2.65075 0.45077,1.2432 -0.75804,2.83265 -0.0774,3.96644 0.46912,0.78146 1.53467,1.11624 2.43792,1.23831 1.59817,0.21599 3.17958,-1.37325 4.74039,-0.96743 0.93837,0.24399 1.33783,1.46392 2.20573,1.89616 0.67942,0.33837 1.69985,1.03166 2.22508,0.48372 1.23187,-1.28517 -0.78747,-3.47853 -1.3544,-5.16607 -0.37113,-1.1047 -1.40585,-2.06797 -1.33504,-3.23119 0.0846,-1.3894 0.66186,-3.54805 2.05094,-3.63753 0.89205,-0.0575 1.35447,1.28988 1.60592,2.14769 0.27829,0.94937 -0.51329,2.01773 -0.21282,2.96032 0.38822,1.21794 1.87973,1.8103 2.4379,2.96032 0.15854,0.32663 0.10581,0.72381 0.23219,1.06418 0.46208,1.24446 1.6538,2.1969 1.89615,3.50207 0.15555,0.83765 0.21357,1.87774 -0.32893,2.53466 -1.05971,1.28326 -3.09549,1.31416 -4.74038,1.56723 -0.91164,0.14026 -2.13992,-0.71526 -2.76684,-0.0387 -1.4613,1.57701 0.0592,4.33791 0.58046,6.42372 1.02875,4.11622 4.71959,9.34653 4.95322,11.7252 0.1067,1.0864 -2.08865,0.97226 -2.67009,1.89616 -2.37371,3.77168 -1.15218,8.86074 -2.26379,13.17634 -0.28949,1.12388 -1.33328,2.14462 -1.14156,3.28925 0.0569,0.33975 0.63959,0.46815 0.63851,0.81264 -8.7e-4,0.4039 -0.73691,0.54456 -0.7546,0.94808 -0.0231,0.52539 0.6878,0.82262 0.87068,1.31569 0.19668,0.53029 0.38608,1.14494 0.21283,1.68333 -0.11322,0.35188 -0.62611,0.46602 -0.75459,0.81263 -0.2333,0.6294 0.35856,1.40273 0.0774,2.01225 -0.37507,0.81312 -2.109,1.66397 -2.109,1.66397 0,0 -1.82809,-0.61291 -2.07028,-1.41244 -0.20972,-0.69231 0.67466,-1.30215 0.81264,-2.01224 0.0947,-0.4875 0.13951,-1.01322 0,-1.48984 -0.24529,-0.8379 -1.16513,-1.36842 -1.41245,-2.20573 -0.39585,-1.34018 -0.0391,-2.79491 -0.0203,-4.1922 0.0502,-3.7457 0.35572,-11.23249 0.35572,-11.23249 -2.2863,2.20358 -12.14661,17.60438 -14.42028,17.89537 -0.71376,0.0914 -1.2419,-1.4618 -1.86069,-1.09452 -0.48653,0.28879 0.41061,1.25664 0.0547,1.6965 -0.5829,0.72049 -1.93514,0.9584 -2.73629,0.49253 -0.28429,-0.16531 -0.0443,-0.76463 -0.32836,-0.93033 -1.26421,-0.73743 -2.86332,0.86806 -4.32334,0.76615 -0.82293,-0.0575 -2.26906,0.0544 -2.35321,-0.76615 -0.10503,-1.02413 1.85003,-0.92535 2.68156,-1.53233 0.95942,-0.70033 1.46514,-2.1602 2.62684,-2.40794 0.16926,-0.0361 0.36396,0.28002 0.49254,0.16418 5.12771,-4.61973 6.37031,-7.14795 14.72126,-16.58195 1.6327,-1.84445 0,0 0.16418,-7.38799 0.0258,-1.15834 -0.98926,1.55861 -1.9154,2.90047 -0.98658,1.42942 -1.45155,-3.57013 -3.06466,-4.21389 -1.11987,-0.44693 -2.52698,1.28324 -3.55718,0.65671 -0.74943,-0.45577 -0.8445,-1.64377 -0.76616,-2.5174 0.0546,-0.6092 0.96009,-1.03303 0.83806,-1.63238 -0.0853,-0.41883 -1.06727,-0.40144 -0.98507,-0.82089 0.0136,-0.0692 -0.0696,-0.14513 0.20174,-0.0641 3.68387,-0.81241 1.86676,-4.65728 3.89881,-8.00876 0.67666,-1.01841 2.43415,-1.02988 2.99664,-2.11553 0.23498,-0.45352 0.37163,-1.18191 0,-1.53233 -0.67805,-0.63934 -2.09334,0.78206 -2.79101,0.16418 -0.21894,-0.19388 0.15841,-0.67537 -0.0547,-0.87561 -0.17283,-0.16237 -0.57482,0.19384 -0.71144,0 -0.15621,-0.22167 0.42051,-0.53819 0.27364,-0.76616 -0.11897,-0.18466 -0.49278,0.0915 -0.65672,-0.0547 -0.20826,-0.18574 0.0394,-0.63008 -0.16417,-0.82089 -0.20142,-0.18877 -0.69418,0.13579 -0.82089,-0.10945 -0.17979,-0.34798 0.4533,-0.65957 0.54726,-1.0398 0.0831,-0.33648 0.0251,-0.69411 0,-1.03979 -0.0549,-0.75389 0.10125,-1.62183 -0.32836,-2.24376 -0.10674,-0.15453 -0.41185,-0.10403 -0.49253,-0.27363 -0.12575,-0.26434 -0.009,-0.62071 0.15345,-0.86464 z"
         style="display:inline;fill:#b4051e;fill-opacity:1;stroke:none;stroke-width:0.21670346px;stroke-linecap:butt;stroke-linejoin:miter;stroke-opacity:1" />
      <path
         sodipodi:nodetypes="ccscccccccssssssssscsssccccscccsssssssccscsssscccccccccscccscccccssssssc"
         inkscape:connector-curvature="0"
         d="m 195.18609,162.81957 c 0,0 -5.43383,4.12068 -7.49745,6.78601 -0.39712,0.51291 -0.49484,1.21966 -0.90298,1.72386 -0.61132,0.75522 -1.78151,1.00605 -2.24376,1.86068 -0.19215,0.35527 0.23024,1.03541 -0.13681,1.20397 0,0 -1.90367,-0.78925 -2.2164,-1.9154 -0.10483,-0.3775 -0.4797,-0.85646 -0.19154,-1.12189 0.37141,-0.34211 1.03207,-0.20012 1.42287,-0.51989 0.66223,-0.54188 0.61764,-1.25815 1.36815,-1.66914 0.41608,-0.22784 0.97259,-0.27766 1.39551,-0.49254 1.26523,-1.02616 3.13951,-5.24085 5.69149,-7.41537 0,0 -0.38996,-0.54257 0.62335,-1.27798 1.01332,-0.7354 2.89969,-1.77449 3.56318,-2.41601 2.0606,-1.99235 4.04915,-4.51936 5.29708,-7.09971 0.53999,-1.11653 0.92492,-2.27479 1.67967,-3.25894 0.78513,-1.02376 2.11718,-1.3859 2.76447,-2.50194 0.2843,-0.49019 0.22235,-1.14117 0.10944,-1.6965 -0.41692,-2.05058 -2.1886,-3.61386 -2.81838,-5.60939 -0.39676,-1.25717 0.35937,-2.98256 -0.57462,-3.91291 -0.50264,-0.50067 -1.4967,0.0608 -2.10694,-0.30099 -1.32278,-0.78428 -2.19828,-2.26391 -2.76366,-3.69399 -0.2733,-0.69129 -0.47441,-1.50893 -0.24628,-2.21641 0.56728,-1.75909 3.17174,-4.4362 4.0312,-3.82772 0.9388,0.66466 1.33296,-0.11717 1.94909,0.37055 0.13361,0.10575 0.10343,0.36076 0.25154,0.44501 0.51027,0.29026 1.30807,-0.41251 1.76071,-0.0387 0.26734,0.22078 -0.0998,0.81298 0.17414,1.02547 0.12273,0.0952 0.32966,-0.11603 0.46437,-0.0387 0.27269,0.15656 0.1634,0.65168 0.40632,0.85134 0.22114,0.18176 0.66524,-0.0199 0.83198,0.21283 0.19593,0.27341 0.0905,0.71467 -0.0774,1.00613 -0.25003,0.43404 -1.0205,0.40025 -1.2383,0.85133 -0.24455,0.50649 0.02,1.12914 0.11609,1.68332 0.0732,0.42249 -0.08,1.25961 0.34827,1.2383 1.32428,-0.0659 3.69738,0.1312 4.75229,-0.30762 2.03895,-0.84816 3.6892,-1.56831 4.0513,-2.0142 1.63262,-2.01041 5.01702,-5.45371 6.59784,-8.74553 0.40626,-0.84596 0.46028,-1.8196 0.69404,-2.72848 0.22882,-0.88972 -0.0506,-2.12858 0.69355,-2.66734 0.31729,-0.22973 1.31174,-1.47912 1.17282,0.074 0.036,1.75191 -1.06261,2.07501 -1.24402,2.71273 -0.29284,1.02943 0.33861,0.84569 -0.11678,2.89924 -1.56815,4.09106 -4.15279,8.60027 -5.35954,9.59687 -1.87713,1.55024 -2.79723,2.58993 -4.45016,3.40534 -1.34514,0.66358 -2.86268,1.40964 -3.90841,1.79942 -1.2128,0.45205 3.40543,1.22673 1.16091,3.92775 -0.48075,0.57853 -0.95882,3.71573 0.48372,5.2241 0.59639,1.84459 0.57265,3.85525 1.02547,4.83712 2.55122,3.04873 7.71551,4.15938 8.90032,7.62332 0.21285,3.44251 -4.18477,7.38354 -7.58461,12.11218 -0.35856,0.62714 -0.36797,1.5068 -0.44502,2.22508 -0.0438,0.40811 -0.13593,0.95004 0.17414,1.21895 0.22412,0.19439 0.66366,-0.19175 0.89003,0 0.32927,0.27895 0.42446,0.90093 0.21283,1.27702 -0.66864,0.55081 -2.13626,0.53356 -2.72815,0.17413 -0.43704,-0.28172 -0.65467,-0.84828 -0.77393,-1.3544 -0.1052,-0.44642 0.2542,-0.95056 0.0774,-1.37375 -0.11275,-0.26982 -0.37545,-0.50448 -0.65786,-0.58045 -0.19054,-0.0512 -0.43647,-0.0188 -0.58045,0.11609 -0.52626,0.49316 0.0192,1.66141 -0.56111,2.08965 -0.14021,0.10347 -0.38971,0.0936 -0.5224,-0.0193 -0.15026,-0.12791 -0.1368,-0.38424 -0.1161,-0.58047 0.0649,-0.6148 0.64379,-1.09126 0.73525,-1.70267 0.0691,-0.46208 -0.10905,-0.92811 -0.1548,-1.39309 -0.0222,-0.22547 -0.1741,-0.48262 -0.0581,-0.6772 0.46466,-0.77893 1.83551,-0.46186 2.49596,-1.08351 1.60074,-1.50674 2.67803,-4.01714 3.8697,-6.11414 1.26337,-2.22315 3.65621,-3.58576 2.20574,-3.81166 -2.36052,-0.36762 -1.79612,-0.92939 -2.36052,-0.36762 -0.49003,0.48774 0.67161,1.46192 0.30958,2.05094 -0.95804,1.55869 -3.43279,4.17872 -6.53981,5.3402 -4.26175,1.59314 -13.57558,-1.41744 -13.57558,-1.41744"
         style="display:inline;opacity:0.98999999;fill:#b4051e;fill-opacity:1;stroke:none;stroke-width:0.21670346px;stroke-linecap:butt;stroke-linejoin:miter;stroke-opacity:1"
         id="path3727-0" />
    </g>
  </g>
</svg>
