<?xml version="1.0" encoding="UTF-8" standalone="no"?>
<!-- Created with Inkscape (http://www.inkscape.org/) -->

<svg
   xmlns:dc="http://purl.org/dc/elements/1.1/"
   xmlns:cc="http://creativecommons.org/ns#"
   xmlns:rdf="http://www.w3.org/1999/02/22-rdf-syntax-ns#"
   xmlns:svg="http://www.w3.org/2000/svg"
   xmlns="http://www.w3.org/2000/svg"
   xmlns:sodipodi="http://sodipodi.sourceforge.net/DTD/sodipodi-0.dtd"
   xmlns:inkscape="http://www.inkscape.org/namespaces/inkscape"
   width="288.00003"
   height="360"
   viewBox="0 0 76.200006 95.250003"
   version="1.1"
   id="svg8"
   inkscape:version="0.92.4 (5da689c313, 2019-01-14)"
   sodipodi:docname="dance-grey.svg"
   style="enable-background:new">
  <defs
     id="defs2" />
  <sodipodi:namedview
     id="base"
     pagecolor="#ffffff"
     bordercolor="#666666"
     borderopacity="1.0"
     inkscape:pageopacity="0.0"
     inkscape:pageshadow="2"
     inkscape:zoom="0.98994949"
     inkscape:cx="204.66455"
     inkscape:cy="168.54151"
     inkscape:document-units="mm"
     inkscape:current-layer="layer2"
     showgrid="false"
     inkscape:window-width="1850"
     inkscape:window-height="1016"
     inkscape:window-x="70"
     inkscape:window-y="27"
     inkscape:window-maximized="1"
     units="px"
     fit-margin-top="0"
     fit-margin-left="0"
     fit-margin-right="0"
     fit-margin-bottom="0" />
  <metadata
     id="metadata5">
    <rdf:RDF>
      <cc:Work
         rdf:about="">
        <dc:format>image/svg+xml</dc:format>
        <dc:type
           rdf:resource="http://purl.org/dc/dcmitype/StillImage" />
        <dc:title></dc:title>
      </cc:Work>
    </rdf:RDF>
  </metadata>
  <g
     inkscape:groupmode="layer"
     id="layer3"
     inkscape:label="Vector Man"
     style="display:inline"
     transform="translate(-37.495234,-28.636902)"
     sodipodi:insensitive="true">
    <path
       style="fill:#ffffff;fill-opacity:1;stroke:none;stroke-width:0.26458332px;stroke-linecap:butt;stroke-linejoin:miter;stroke-opacity:1"
       d="m 74.154204,43.708703 c 0.840317,-1.266821 2.381149,-2.010934 3.827007,-2.480469 1.132498,-0.367773 2.471045,-0.654135 3.56715,-0.188987 1.315414,0.558215 2.324107,1.893045 2.8112,3.236421 0.550367,1.517882 -0.92552,3.458524 -0.0945,4.84282 0.572777,0.954121 1.873745,1.362867 2.976563,1.511906 1.951281,0.263703 3.882102,-1.676664 5.78776,-1.181177 1.145704,0.297892 1.633425,1.78737 2.693083,2.315104 0.829537,0.413129 2.07543,1.259603 2.716701,0.59059 1.504052,-1.569121 -0.961453,-4.247094 -1.653645,-6.307479 -0.453129,-1.348787 -1.716469,-2.524886 -1.630021,-3.945125 0.103256,-1.696367 0.808098,-4.331968 2.50409,-4.441222 1.08915,-0.07016 1.653745,1.574873 1.960753,2.622211 0.339778,1.159135 -0.626703,2.463541 -0.259858,3.614396 0.474007,1.487042 2.295063,2.210284 2.976563,3.614396 0.19356,0.398795 0.12918,0.88373 0.28348,1.299295 0.56418,1.51943 2.01921,2.682304 2.31511,4.275855 0.18991,1.022727 0.26075,2.292604 -0.40161,3.09468 -1.29384,1.566784 -3.77943,1.604515 -5.787755,1.913505 -1.113067,0.17125 -2.612726,-0.873295 -3.378162,-0.04725 -1.784163,1.92544 0.07223,5.296351 0.708705,7.843007 1.256054,5.025691 5.762372,11.411624 6.047622,14.315847 0.13028,1.326435 -2.550131,1.187087 -3.260046,2.315104 -2.898164,4.605027 -1.406739,10.818493 -2.763952,16.087611 -0.353451,1.372205 -1.627872,2.618468 -1.393788,4.015998 0.06948,0.41483 0.780898,0.57159 0.779577,0.99219 -0.0015,0.49314 -0.899712,0.66488 -0.921317,1.15755 -0.02813,0.64148 0.839758,1.00438 1.063057,1.6064 0.240144,0.64744 0.471374,1.3979 0.25986,2.05525 -0.138242,0.42963 -0.764456,0.56899 -0.921319,0.99218 -0.284846,0.76846 0.437772,1.71265 0.0945,2.45685 -0.457934,0.99278 -2.574964,2.03162 -2.574964,2.03162 0,0 -2.232011,-0.74834 -2.527716,-1.72452 -0.256052,-0.84528 0.823731,-1.58985 0.992188,-2.45684 0.115649,-0.59521 0.170349,-1.23709 0,-1.81901 -0.299482,-1.02304 -1.422559,-1.67077 -1.724517,-2.69308 -0.483308,-1.63629 -0.04767,-3.41243 -0.02479,-5.11845 0.06132,-4.573306 0.434313,-13.714271 0.434313,-13.714271 -2.791448,2.690454 -14.830359,21.494001 -17.606388,21.849291 -0.871454,0.11153 -1.516286,-1.78478 -2.271791,-1.33635 -0.594046,0.35259 0.501317,1.53429 0.06682,2.07134 -0.711693,0.87968 -2.362707,1.17015 -3.340869,0.60135 -0.347102,-0.20184 -0.05408,-0.93358 -0.400904,-1.13589 -1.543539,-0.90036 -3.49597,1.05986 -5.278573,0.93544 -1.004754,-0.0701 -2.770396,0.0665 -2.873148,-0.93544 -0.128232,-1.25041 2.258795,-1.1298 3.274052,-1.87089 1.171396,-0.85506 1.788849,-2.63749 3.207234,-2.93996 0.206649,-0.0441 0.444375,0.34188 0.601357,0.20045 6.260665,-5.640444 7.77781,-8.72726 17.973875,-20.24567 1.993443,-2.251975 0,0 0.200453,-9.020347 0.03143,-1.41426 -1.207843,1.902984 -2.338609,3.541322 -1.20455,1.745241 -1.772257,-4.358928 -3.741773,-5.144939 -1.367309,-0.545677 -3.085302,1.56677 -4.34313,0.801809 -0.915007,-0.55647 -1.031091,-2.006947 -0.935443,-3.0736 0.0667,-0.743806 1.172227,-1.261283 1.023221,-1.993057 -0.104126,-0.511367 -1.303068,-0.490141 -1.202713,-1.002261 0.01657,-0.08454 -0.085,-0.177201 0.246309,-0.07828 4.497812,-0.991918 2.279215,-5.686293 4.760247,-9.778266 0.826166,-1.243431 2.971964,-1.25743 3.658743,-2.58295 0.286893,-0.55372 0.453735,-1.443058 0,-1.870887 -0.827874,-0.780607 -2.555856,0.954844 -3.407686,0.200452 -0.2673,-0.236725 0.193412,-0.824604 -0.06682,-1.069078 -0.211026,-0.198248 -0.701836,0.236676 -0.868626,0 -0.190732,-0.270649 0.513406,-0.657101 0.334087,-0.935443 -0.145249,-0.225459 -0.601647,0.111686 -0.801808,-0.06682 -0.254276,-0.226766 0.04814,-0.769284 -0.200453,-1.002261 -0.245926,-0.230475 -0.847553,0.165804 -1.00226,-0.133635 -0.219504,-0.424856 0.553462,-0.805282 0.668174,-1.26953 0.10151,-0.410821 0.03072,-0.84747 0,-1.26953 -0.06699,-0.920462 0.123626,-1.980166 -0.400906,-2.73951 -0.130329,-0.188672 -0.50285,-0.127014 -0.601356,-0.334087 -0.153527,-0.322736 -0.01019,-0.757853 0.187362,-1.055679 z"
       id="path4556"
       inkscape:connector-curvature="0"
       sodipodi:nodetypes="caaaaaaaaaaaaaaaaaaaasaaaaaaaaacaaaaassaaaaaaaassssaaaaaccaaaaaaaaaaaaaac" />
  </g>
  <g
     inkscape:groupmode="layer"
     id="layer2"
     inkscape:label="Vector Woman"
     style="display:inline"
     transform="translate(-37.495234,-28.636902)"
     sodipodi:insensitive="true">
    <path
       id="path3727"
       style="fill:#ffffff;fill-opacity:1;stroke:none;stroke-width:0.26458332px;stroke-linecap:butt;stroke-linejoin:miter;stroke-opacity:1"
       d="m 61.973121,98.485557 c 0,0 -6.634421,5.031143 -9.15398,8.285353 -0.484865,0.62624 -0.604179,1.48915 -1.102487,2.10475 -0.746393,0.92208 -2.175139,1.22833 -2.739515,2.27179 -0.23461,0.43376 0.28111,1.26418 -0.167042,1.46998 0,0 -2.324288,-0.96363 -2.706104,-2.3386 -0.127987,-0.4609 -0.585693,-1.04569 -0.233861,-1.36976 0.453473,-0.4177 1.260102,-0.24434 1.737251,-0.63477 0.808545,-0.6616 0.754105,-1.53613 1.670437,-2.03792 0.508008,-0.27819 1.187477,-0.33902 1.703842,-0.60137 1.544776,-1.25288 3.833172,-6.398798 6.949007,-9.053759 0,0 -0.476127,-0.662453 0.761079,-1.560346 1.237207,-0.897893 3.540364,-2.166569 4.350451,-2.949827 2.515873,-2.43255 4.9438,-5.517907 6.467448,-8.668369 0.659292,-1.363225 1.129267,-2.777387 2.050784,-3.978992 0.958599,-1.249957 2.584965,-1.692103 3.375262,-3.054723 0.347122,-0.598503 0.271488,-1.393329 0.133636,-2.071338 -0.509042,-2.503661 -2.672167,-4.412353 -3.441097,-6.848782 -0.484421,-1.534934 0.438774,-3.641541 -0.701582,-4.777443 -0.61369,-0.611293 -1.827393,0.07427 -2.57247,-0.367496 -1.615032,-0.957568 -2.683979,-2.764103 -3.374276,-4.510172 -0.333678,-0.844021 -0.579229,-1.842322 -0.300678,-2.706106 0.692606,-2.147764 3.872513,-5.416367 4.921862,-4.673443 1.146222,0.811509 1.627476,-0.143059 2.379751,0.452415 0.163123,0.129122 0.126274,0.440478 0.307108,0.543341 0.623013,0.354387 1.597086,-0.503659 2.149739,-0.04725 0.326403,0.269561 -0.121883,0.992592 0.212611,1.252045 0.149849,0.116232 0.4025,-0.141673 0.566965,-0.04725 0.332947,0.191152 0.199504,0.795658 0.496094,1.039434 0.270007,0.221926 0.812225,-0.02423 1.01581,0.259858 0.239221,0.333819 0.11051,0.872563 -0.09449,1.228423 -0.305282,0.529938 -1.245984,0.488692 -1.511905,1.039434 -0.298588,0.618398 0.02454,1.378613 0.141742,2.055247 0.08935,0.515839 -0.09765,1.537916 0.425223,1.511903 1.616877,-0.08044 4.514296,0.160176 5.802293,-0.375602 2.48944,-1.035551 4.504305,-1.914819 4.946404,-2.459218 1.993348,-2.454604 6.125514,-6.65869 8.055618,-10.677829 0.496015,-1.032874 0.561975,-2.221633 0.847376,-3.331321 0.279388,-1.086307 -0.06173,-2.598893 0.846801,-3.256687 0.38739,-0.280477 1.601557,-1.805931 1.431944,0.09045 0.04398,2.138988 -1.297387,2.533479 -1.518882,3.312105 -0.357544,1.256879 0.41342,1.032533 -0.142582,3.539817 -1.914633,4.994951 -5.07033,10.50046 -6.543712,11.717262 -2.291871,1.892758 -3.415272,3.162155 -5.433407,4.157738 -1.642339,0.810196 -3.495176,1.721091 -4.771951,2.196986 -1.480768,0.55193 4.157834,1.497776 1.417412,4.795572 -0.586972,0.706356 -1.170685,4.536712 0.590587,6.378349 0.728163,2.25215 0.699178,4.707068 1.252048,5.905877 3.114903,3.722334 9.420219,5.078369 10.866817,9.307663 0.259874,4.203112 -5.109389,9.014904 -9.260418,14.788314 -0.43777,0.76571 -0.449259,1.83973 -0.54334,2.71671 -0.05345,0.49827 -0.16597,1.15994 0.212611,1.48828 0.273646,0.23733 0.810295,-0.23413 1.086681,0 0.402026,0.34057 0.518255,1.09998 0.259858,1.55916 -0.816376,0.67251 -2.608265,0.65146 -3.330914,0.21261 -0.533612,-0.34396 -0.799319,-1.03571 -0.94494,-1.65365 -0.128444,-0.54505 0.310372,-1.16058 0.09449,-1.67727 -0.137651,-0.32945 -0.458403,-0.61595 -0.803198,-0.7087 -0.232642,-0.0626 -0.532913,-0.023 -0.708705,0.14174 -0.642544,0.60212 0.02345,2.02848 -0.685083,2.55134 -0.171191,0.12633 -0.475822,0.1143 -0.637834,-0.0236 -0.183454,-0.15616 -0.167021,-0.46912 -0.141743,-0.70871 0.0792,-0.75064 0.786028,-1.33237 0.897695,-2.07887 0.08439,-0.56418 -0.133129,-1.13318 -0.18899,-1.70089 -0.02709,-0.27529 -0.212582,-0.58926 -0.07087,-0.82682 0.567323,-0.95104 2.241063,-0.56391 3.047431,-1.32292 1.954412,-1.83964 3.269734,-4.904713 4.724704,-7.465032 1.542498,-2.714341 4.464025,-4.378027 2.69308,-4.65383 -2.882069,-0.448847 -2.192962,-1.134734 -2.882069,-0.448847 -0.598303,0.595507 0.820008,1.784926 0.377976,2.504093 -1.169715,1.903073 -4.19125,5.101985 -7.984747,6.520086 -5.203368,1.94514 -16.575056,-1.730611 -16.575056,-1.730611"
       inkscape:connector-curvature="0"
       sodipodi:nodetypes="ccscccccccssssssssscsssccccscccsssssssccscsssscccccccccscccscccccssssssc" />
  </g>
  <g
     inkscape:groupmode="layer"
     id="layer4"
     inkscape:label="Vector Hand Man"
     transform="translate(-37.495234,-28.636902)"
     sodipodi:insensitive="true">
    <path
       style="fill:#ffffff;fill-opacity:1;stroke:none;stroke-width:0.26458332px;stroke-linecap:butt;stroke-linejoin:miter;stroke-opacity:1"
       d="m 71.127104,67.348657 c 0.104464,-0.611037 1.029079,0.578293 1.479071,0.955014 0.460028,0.385123 0.62757,1.292455 1.227032,1.316778 0.858517,0.03483 1.063419,-1.913874 1.904294,-1.737254 1.049026,0.220341 1.4768,1.882243 1.302941,2.939966 -0.210929,1.283242 -1.728222,1.945159 -2.639287,2.873147 -0.576981,1.774685 -2.949811,-0.141393 -2.873149,-3.608139 0.02338,-0.591437 0.618686,-1.201297 0.367495,-1.737252 -0.470149,-0.464027 -0.768397,-1.00226 -0.768397,-1.00226 z"
       id="path4567"
       inkscape:connector-curvature="0"
       sodipodi:nodetypes="saaaacccs" />
  </g>
</svg>
